<mxfile host="app.diagrams.net" modified="2023-09-22T08:45:45.458Z" agent="Mozilla/5.0 (X11; Linux x86_64) AppleWebKit/537.36 (KHTML, like Gecko) Chrome/116.0.0.0 Safari/537.36" etag="kIHp7hkMGMYC8p8D_KRI" version="21.8.0" type="github">
  <diagram name="第 1 页" id="2K83EdFup8GxKKJUzQWI">
    <mxGraphModel dx="1434" dy="743" grid="0" gridSize="10" guides="1" tooltips="1" connect="1" arrows="1" fold="1" page="1" pageScale="1" pageWidth="827" pageHeight="1169" math="0" shadow="0">
      <root>
        <mxCell id="0" />
        <mxCell id="1" parent="0" />
        <mxCell id="PYHBvQAv3ILcO0LImqyy-1" style="edgeStyle=orthogonalEdgeStyle;rounded=1;orthogonalLoop=1;jettySize=auto;html=1;curved=1;exitX=1;exitY=0.5;exitDx=0;exitDy=0;entryX=0.524;entryY=0.003;entryDx=0;entryDy=0;entryPerimeter=0;" parent="1" source="PYHBvQAv3ILcO0LImqyy-14" target="PYHBvQAv3ILcO0LImqyy-8" edge="1">
          <mxGeometry relative="1" as="geometry">
            <mxPoint x="400" y="129" as="targetPoint" />
            <mxPoint x="320" y="129.0588235294117" as="sourcePoint" />
          </mxGeometry>
        </mxCell>
        <mxCell id="PYHBvQAv3ILcO0LImqyy-6" style="edgeStyle=orthogonalEdgeStyle;html=1;labelBackgroundColor=none;startFill=0;startSize=8;endFill=1;endSize=8;fontFamily=Verdana;fontSize=12;curved=1;exitX=0.5;exitY=1;exitDx=0;exitDy=0;entryX=0.5;entryY=0;entryDx=0;entryDy=0;" parent="1" source="PYHBvQAv3ILcO0LImqyy-14" target="PYHBvQAv3ILcO0LImqyy-19" edge="1">
          <mxGeometry relative="1" as="geometry">
            <mxPoint x="240" y="184" as="sourcePoint" />
            <mxPoint x="240.02857142857147" y="272" as="targetPoint" />
          </mxGeometry>
        </mxCell>
        <mxCell id="PYHBvQAv3ILcO0LImqyy-23" style="edgeStyle=orthogonalEdgeStyle;curved=1;rounded=0;orthogonalLoop=1;jettySize=auto;html=1;entryX=1;entryY=0.5;entryDx=0;entryDy=0;" parent="1" source="PYHBvQAv3ILcO0LImqyy-8" target="PYHBvQAv3ILcO0LImqyy-19" edge="1">
          <mxGeometry relative="1" as="geometry" />
        </mxCell>
        <mxCell id="PYHBvQAv3ILcO0LImqyy-8" value="QMap&amp;lt;QString, compInfo&amp;gt;&lt;br&gt;// &amp;lt;timestamp, component&amp;gt;" style="html=1;rounded=1;shadow=0;comic=0;labelBackgroundColor=none;strokeWidth=2;fontFamily=Verdana;fontSize=12;align=center;shape=mxgraph.ios7ui.horLines;" parent="1" vertex="1">
          <mxGeometry x="403" y="176" width="295" height="56" as="geometry" />
        </mxCell>
        <mxCell id="PYHBvQAv3ILcO0LImqyy-27" style="edgeStyle=orthogonalEdgeStyle;curved=1;rounded=0;orthogonalLoop=1;jettySize=auto;html=1;" parent="1" source="PYHBvQAv3ILcO0LImqyy-10" target="PYHBvQAv3ILcO0LImqyy-25" edge="1">
          <mxGeometry relative="1" as="geometry" />
        </mxCell>
        <mxCell id="PYHBvQAv3ILcO0LImqyy-10" value="QMap&amp;lt;QString, QList&amp;lt;int&amp;gt;&amp;gt;&lt;br&gt;// &amp;lt;timestamp, area...&amp;gt;" style="html=1;rounded=1;shadow=0;comic=0;labelBackgroundColor=none;strokeWidth=2;fontFamily=Verdana;fontSize=12;align=center;shape=mxgraph.ios7ui.horLines;" parent="1" vertex="1">
          <mxGeometry x="413" y="398" width="295" height="56" as="geometry" />
        </mxCell>
        <mxCell id="PYHBvQAv3ILcO0LImqyy-14" value="setCpkGrrInfos" style="swimlane;rounded=1;" parent="1" vertex="1">
          <mxGeometry x="171" y="25" width="149" height="131" as="geometry" />
        </mxCell>
        <mxCell id="PYHBvQAv3ILcO0LImqyy-18" value="选择板卡后暂存数据" style="text;html=1;align=center;verticalAlign=middle;resizable=0;points=[];autosize=1;strokeColor=none;fillColor=none;" parent="PYHBvQAv3ILcO0LImqyy-14" vertex="1">
          <mxGeometry x="20" y="28" width="130" height="30" as="geometry" />
        </mxCell>
        <mxCell id="PYHBvQAv3ILcO0LImqyy-24" style="edgeStyle=orthogonalEdgeStyle;curved=1;rounded=0;orthogonalLoop=1;jettySize=auto;html=1;" parent="1" source="PYHBvQAv3ILcO0LImqyy-19" target="PYHBvQAv3ILcO0LImqyy-10" edge="1">
          <mxGeometry relative="1" as="geometry" />
        </mxCell>
        <mxCell id="PYHBvQAv3ILcO0LImqyy-30" style="edgeStyle=orthogonalEdgeStyle;curved=1;rounded=0;orthogonalLoop=1;jettySize=auto;html=1;entryX=0.5;entryY=0;entryDx=0;entryDy=0;" parent="1" source="PYHBvQAv3ILcO0LImqyy-19" target="PYHBvQAv3ILcO0LImqyy-25" edge="1">
          <mxGeometry relative="1" as="geometry" />
        </mxCell>
        <mxCell id="PYHBvQAv3ILcO0LImqyy-19" value="sceneItemChange" style="swimlane;rounded=1;startSize=23;" parent="1" vertex="1">
          <mxGeometry x="145.5" y="245" width="200" height="131" as="geometry" />
        </mxCell>
        <mxCell id="PYHBvQAv3ILcO0LImqyy-20" value="从缓存数据中挑选选中的&lt;br&gt;元件数据按日期划分，&lt;br&gt;按照前端传下来的&lt;br&gt;抽样间隔和子组容量，&lt;br&gt;分组整理,&lt;br&gt;挑选在USL和LSL之间的数值" style="text;html=1;align=center;verticalAlign=middle;resizable=0;points=[];autosize=1;strokeColor=none;fillColor=none;" parent="PYHBvQAv3ILcO0LImqyy-19" vertex="1">
          <mxGeometry x="10.5" y="26" width="168" height="98" as="geometry" />
        </mxCell>
        <mxCell id="PYHBvQAv3ILcO0LImqyy-25" value="calculateCpk" style="swimlane;rounded=1;startSize=23;" parent="1" vertex="1">
          <mxGeometry x="145.5" y="470" width="200" height="131" as="geometry" />
        </mxCell>
        <mxCell id="PYHBvQAv3ILcO0LImqyy-26" value="1. 将数据输入refinement接口&lt;br&gt;重新美化修改数据&lt;br&gt;2. 美化完成后，调用cpkModel&lt;br&gt;对美化后的数据计算" style="text;html=1;align=center;verticalAlign=middle;resizable=0;points=[];autosize=1;strokeColor=none;fillColor=none;" parent="PYHBvQAv3ILcO0LImqyy-25" vertex="1">
          <mxGeometry x="4.5" y="40" width="181" height="70" as="geometry" />
        </mxCell>
      </root>
    </mxGraphModel>
  </diagram>
</mxfile>
